<svg id="Layer_1" xmlns="http://www.w3.org/2000/svg" width="1299.9" height="371.1"><style>.st0{fill:none}.st1{fill:#fff}</style><path class="st0" d="M157.5 171.1c-23 0-42.5 15.3-48.9 36.2h14.8c5.8-13.1 18.9-22.3 34.1-22.3 20.5 0 37.2 16.7 37.2 37.2 0 20.5-16.7 37.2-37.2 37.2-15.2 0-28.3-9.2-34.1-22.3h-14.8c6.4 20.9 25.9 36.2 48.9 36.2 28.2 0 51.1-22.9 51.1-51.1 0-28.2-22.9-51.1-51.1-51.1z"/><path class="st1" d="M205.6 153.9v-30.2c0-26.5-21.6-48.1-48.1-48.1s-48.1 21.6-48.1 48.1v30.2c-13.3 2-21.5 4.7-21.5 7.8v54h56.9v-9.8c0-2.5 1.8-3.6 4-2.3l28.3 16.4c2.2 1.3 2.2 3.3 0 4.6L148.8 241c-2.2 1.3-4 .2-4-2.3v-9.8H87.9v12.7c0 38.5 47.5 54.8 69.7 54.8s69.7-16.3 69.7-54.8v-79.8c-.1-3.2-8.4-5.9-21.7-7.9zm-75.5-30.2c0-15.2 12.3-27.5 27.5-27.5 15.1 0 27.5 12.3 27.5 27.5v28.1c-8.4-.6-17.7-.9-27.5-.9s-19 .3-27.5.9v-28.1zm27.4 149.6c-23 0-42.5-15.3-48.9-36.2h14.8c5.7 13.1 18.9 22.3 34.1 22.3 20.5 0 37.2-16.7 37.2-37.2 0-20.5-16.7-37.2-37.2-37.2-15.2 0-28.3 9.2-34.1 22.3h-14.8c6.4-20.9 25.9-36.2 48.9-36.2 28.2 0 51.1 22.9 51.1 51.1 0 28.2-22.9 51.1-51.1 51.1z"/><g><path class="st1" d="M298.5 183.3h-26.3v-18.2H346v18.2h-26.3v68.5h-21.2v-68.5zm59.3-18.2H388c8.8 0 13.1.6 16.8 2.1 9.8 3.8 16 12.6 16 25.2 0 9.2-4.4 19.3-13 23.6v.2s1.2 1.6 3.3 5.2l16.8 30.3h-23.6L389 222.5h-10v29.2h-21.2v-86.6zm30.4 39.3c6.8 0 11-3.8 11-10.7 0-6.5-2.4-10.4-13.1-10.4H379v21.1h9.2zm51.5-39.3h21.2v54.8c0 9.1 5.9 13.9 15 13.9s15-4.8 15-13.9v-54.8h21.2v54.8c0 19.5-14.3 33.3-36.1 33.3-22.1 0-36.4-13.8-36.4-33.3v-54.8zm97.6 59.6s9.8 9 20.7 9c4.4 0 9.1-1.7 9.1-6.9 0-10.3-39-9.9-39-36.6 0-16 13.4-26.5 30.7-26.5 18.7 0 27.9 9.8 27.9 9.8l-9 17.3s-8.7-7.6-19.1-7.6c-4.4 0-9.2 1.9-9.2 6.8 0 10.9 39 9 39 36.4 0 14.4-11 26.9-30.5 26.9-20.4 0-31.6-12.4-31.6-12.4l11-16.2zm83.3-41.4h-26.3v-18.2h73.8v18.2h-26.3v68.5h-21.2v-68.5zm59.4-18.2h54.3v18.2h-33.1V199h26.4v18.2h-26.4v16.4H736v18.2h-56v-86.7zm72.5 0h30.8c27.3 0 44.7 15.9 44.7 43.1s-17.4 43.5-44.7 43.5h-30.8v-86.6zm29.9 68.5c14.7 0 23.6-8.7 23.6-25.3 0-16.5-9.3-25-23.6-25h-8.7v50.3h8.7zm68-67.4h12v75.1h38.3v10.4h-50.3v-85.5zm99.6-1.5c24.7 0 43.9 19 43.9 43.6 0 25.2-19.1 44.8-43.9 44.8s-44-19.6-44-44.8c0-24.5 19.3-43.6 44-43.6zm0 77.5c17.4 0 31.5-14.5 31.5-33.8 0-18.7-14.1-32.7-31.5-32.7s-31.6 14.1-31.6 32.7c0 19.2 14.1 33.8 31.6 33.8zm100.4-77.5c20.5 0 31.1 10.3 31.1 10.3l-6.1 9s-9.6-8.4-24.1-8.4c-20.1 0-32.2 14.7-32.2 33 0 19.9 13.6 33.6 31.5 33.6 14.8 0 24.2-10.7 24.2-10.7v-12.4H1061v-10.4h24.8v43h-10.5v-5.3c0-1.8.1-3.6.1-3.6h-.2s-9.3 10.4-26.3 10.4c-23 0-42-18.2-42-44.3-.1-24.8 18.6-44.2 43.5-44.2zm55.4 1.5h12v85.5h-12v-85.5zm36.5 0h11.9l38 55.6c3.2 4.6 7.1 12.4 7.1 12.4h.2s-.8-7.6-.8-12.4v-55.6h12v85.5H1199l-38.2-55.5c-3.2-4.7-7.1-12.5-7.1-12.5h-.2s.8 7.6.8 12.5v55.5h-12v-85.5z"/></g></svg>