<?xml version="1.0" encoding="utf-8"?>
<!-- Generator: Adobe Illustrator 26.0.1, SVG Export Plug-In . SVG Version: 6.00 Build 0)  -->
<svg version="1.1" id="Layer_1" xmlns="http://www.w3.org/2000/svg" xmlns:xlink="http://www.w3.org/1999/xlink" x="0px" y="0px"
	 width="1299.9px" height="371.1px" viewBox="0 0 1299.9 371.1" style="enable-background:new 0 0 1299.9 371.1;"
	 xml:space="preserve">
<style type="text/css">
	.st0{fill:#1099D6;}
	.st1{fill:#1B2B59;}
	.st2{fill:#FFFFFF;}
	.st3{fill:none;}
	.st4{fill:#7F7F7F;}
	.st5{fill:#333333;}
</style>
<g>
	<g>
		<g>
			<path class="st0" d="M157.5,75.6c-26.5,0-48.1,21.6-48.1,48.1v39.8h20.6v-39.8c0-15.2,12.3-27.5,27.5-27.5
				c15.1,0,27.5,12.3,27.5,27.5v39.8h20.6v-39.8C205.6,97.2,184.1,75.6,157.5,75.6z"/>
			<g>
				<path class="st1" d="M157.5,150.9c-38.5,0-69.7,4.8-69.7,10.8v79.8c0,38.5,47.5,54.8,69.7,54.8c22.2,0,69.7-16.3,69.7-54.8
					v-79.8C227.2,155.7,196,150.9,157.5,150.9z"/>
			</g>
		</g>
	</g>
	<g>
		<path class="st2" d="M157.5,171.1c-23,0-42.5,15.3-48.9,36.2h14.8c5.8-13.1,18.9-22.3,34.1-22.3c20.5,0,37.2,16.7,37.2,37.2
			c0,20.5-16.7,37.2-37.2,37.2c-15.2,0-28.3-9.2-34.1-22.3h-14.8c6.4,20.9,25.9,36.2,48.9,36.2c28.2,0,51.1-22.9,51.1-51.1
			C208.6,194,185.7,171.1,157.5,171.1z"/>
	</g>
	<path class="st2" d="M177.2,219.9l-28.3-16.4c-2.2-1.3-4-0.2-4,2.3v9.8H87.9v13h56.9v9.8c0,2.5,1.8,3.6,4,2.3l28.3-16.4
		C179.3,223.2,179.3,221.2,177.2,219.9z"/>
</g>
<g>
	<path class="st1" d="M298.5,183.3h-26.3v-18.2H346v18.2h-26.3v68.5h-21.2V183.3z"/>
	<path class="st1" d="M357.8,165.1H388c8.8,0,13.1,0.6,16.8,2.1c9.8,3.8,16,12.6,16,25.2c0,9.2-4.4,19.3-13,23.6v0.2
		c0,0,1.2,1.6,3.3,5.2l16.8,30.3h-23.6L389,222.5H379v29.2h-21.2V165.1z M388.2,204.4c6.8,0,11-3.8,11-10.7
		c0-6.5-2.4-10.4-13.1-10.4H379v21.1H388.2z"/>
	<path class="st1" d="M439.7,165.1H461v54.8c0,9.1,5.9,13.9,15,13.9c9.1,0,15-4.8,15-13.9v-54.8h21.2v54.8
		c0,19.5-14.3,33.3-36.1,33.3c-22.1,0-36.4-13.8-36.4-33.3V165.1z"/>
	<path class="st1" d="M537.3,224.7c0,0,9.8,9,20.7,9c4.4,0,9.1-1.7,9.1-6.9c0-10.3-39-9.9-39-36.6c0-16,13.4-26.5,30.7-26.5
		c18.7,0,27.9,9.8,27.9,9.8l-9,17.3c0,0-8.7-7.6-19.1-7.6c-4.4,0-9.2,1.9-9.2,6.8c0,10.9,39,9,39,36.4c0,14.4-11,26.9-30.5,26.9
		c-20.4,0-31.6-12.4-31.6-12.4L537.3,224.7z"/>
	<path class="st1" d="M620.6,183.3h-26.3v-18.2h73.8v18.2h-26.3v68.5h-21.2V183.3z"/>
	<path class="st1" d="M680,165.1h54.3v18.2h-33.1V199h26.4v18.2h-26.4v16.4H736v18.2h-56V165.1z"/>
	<path class="st1" d="M752.5,165.1h30.8c27.3,0,44.7,15.9,44.7,43.1s-17.4,43.5-44.7,43.5h-30.8V165.1z M782.4,233.6
		c14.7,0,23.6-8.7,23.6-25.3c0-16.5-9.3-25-23.6-25h-8.7v50.3H782.4z"/>
	<path class="st0" d="M850.4,166.2h12v75.1h38.3v10.4h-50.3V166.2z"/>
	<path class="st0" d="M950,164.7c24.7,0,43.9,19,43.9,43.6c0,25.2-19.1,44.8-43.9,44.8s-44-19.6-44-44.8
		C906,183.8,925.3,164.7,950,164.7z M950,242.2c17.4,0,31.5-14.5,31.5-33.8c0-18.7-14.1-32.7-31.5-32.7s-31.6,14.1-31.6,32.7
		C918.4,227.6,932.5,242.2,950,242.2z"/>
	<path class="st0" d="M1050.4,164.7c20.5,0,31.1,10.3,31.1,10.3l-6.1,9c0,0-9.6-8.4-24.1-8.4c-20.1,0-32.2,14.7-32.2,33
		c0,19.9,13.6,33.6,31.5,33.6c14.8,0,24.2-10.7,24.2-10.7v-12.4H1061v-10.4h24.8v43h-10.5v-5.3c0-1.8,0.1-3.6,0.1-3.6h-0.2
		c0,0-9.3,10.4-26.3,10.4c-23,0-42-18.2-42-44.3C1006.8,184.1,1025.5,164.7,1050.4,164.7z"/>
	<path class="st0" d="M1105.8,166.2h12v85.5h-12V166.2z"/>
	<path class="st0" d="M1142.3,166.2h11.9l38,55.6c3.2,4.6,7.1,12.4,7.1,12.4h0.2c0,0-0.8-7.6-0.8-12.4v-55.6h12v85.5H1199
		l-38.2-55.5c-3.2-4.7-7.1-12.5-7.1-12.5h-0.2c0,0,0.8,7.6,0.8,12.5v55.5h-12V166.2z"/>
</g>
</svg>
